<svg xmlns="http://www.w3.org/2000/svg" width="100%" viewBox="0 0 974 308">
  <defs>
    <linearGradient id="spectrum" x1="104" y1="46" x2="876" y2="260" gradientUnits="userSpaceOnUse">
      <stop offset="0" stop-color="#ff6b7a"/>
      <stop offset="0.52" stop-color="#5d8dff"/>
      <stop offset="1" stop-color="#b98cff"/>
    </linearGradient>
    <linearGradient id="soft-spectrum" x1="0" y1="0" x2="974" y2="308" gradientUnits="userSpaceOnUse">
      <stop offset="0" stop-color="#fff1f3"/>
      <stop offset="0.55" stop-color="#eef4ff"/>
      <stop offset="1" stop-color="#f7f1ff"/>
    </linearGradient>
    <style>
      text { font-family: "Space Grotesk", "Azeret Mono", "IBM Plex Sans", "Helvetica Neue", Arial, sans-serif; fill: #08090c; }
      .word { font-size: 78px; font-weight: 900; letter-spacing: 7px; }
      .sub { font-size: 17px; font-weight: 750; letter-spacing: 5px; fill: #30323a; }
      .chip { font-size: 15px; font-weight: 850; letter-spacing: 3px; }
      .micro { font-size: 13px; font-weight: 750; letter-spacing: 2px; fill: #30323a; }
    </style>
  </defs>

  <rect width="974" height="308" rx="34" fill="#ffffff"/>
  <rect x="16" y="16" width="942" height="276" rx="28" fill="url(#soft-spectrum)" opacity="0.68"/>
  <rect x="16" y="16" width="942" height="276" rx="28" fill="none" stroke="#08090c" stroke-width="2"/>

  <g transform="translate(66 50)">
    <rect x="0" y="0" width="208" height="208" rx="48" fill="#08090c"/>
    <path d="M61 52h50c59 0 94 34 94 80s-35 80-94 80H61z" transform="translate(-26 -10)" fill="none" stroke="#ffffff" stroke-width="28" stroke-linecap="round" stroke-linejoin="round"/>
    <path d="M92 58c42 0 70 28 70 64s-28 64-70 64" fill="none" stroke="url(#spectrum)" stroke-width="17" stroke-linecap="round"/>
    <circle cx="160" cy="58" r="10" fill="#ff6b7a"/>
    <circle cx="168" cy="186" r="10" fill="#b98cff"/>
    <path d="M30 144h44M30 164h68" stroke="#ffffff" stroke-opacity="0.9" stroke-width="9" stroke-linecap="round"/>
  </g>

  <text x="326" y="131" class="word">DOPPLER</text>
  <text x="331" y="174" class="sub">WEBGPU INFERENCE</text>

  <g transform="translate(330 204)">
    <rect x="0" y="0" width="112" height="34" rx="17" fill="#08090c"/>
    <text x="56" y="23" text-anchor="middle" class="chip" fill="#ffffff" style="fill:#ffffff">METAL</text>
    <rect x="128" y="0" width="124" height="34" rx="17" fill="#ffffff" stroke="#08090c" stroke-width="2"/>
    <text x="190" y="23" text-anchor="middle" class="chip">VULKAN</text>
  </g>

  <g transform="translate(696 66)">
    <rect x="0" y="0" width="200" height="176" rx="34" fill="#ffffff" stroke="#08090c" stroke-width="2"/>
    <path d="M35 126c38-82 92-82 130 0" fill="none" stroke="#08090c" stroke-width="10" stroke-linecap="round"/>
    <path d="M35 126c38-82 92-82 130 0" fill="none" stroke="url(#spectrum)" stroke-width="4" stroke-linecap="round"/>
    <circle cx="35" cy="126" r="13" fill="#ff6b7a" stroke="#08090c" stroke-width="2"/>
    <circle cx="100" cy="51" r="13" fill="#5d8dff" stroke="#08090c" stroke-width="2"/>
    <circle cx="165" cy="126" r="13" fill="#b98cff" stroke="#08090c" stroke-width="2"/>
    <text x="35" y="156" text-anchor="middle" class="micro">METAL</text>
    <text x="165" y="156" text-anchor="middle" class="micro">VULKAN</text>
  </g>
</svg>
